HIERARCHY
ROOT Hips
{
	OFFSET 0.000000 71.427986 0.000000
	CHANNELS 6 Xposition Yposition Zposition Xrotation Yrotation Zrotation
	JOINT Pelvis
	{
		OFFSET 0.000000 0.000000 0.000000
		CHANNELS 3 Xrotation Yrotation Zrotation
		JOINT LeftUpLeg
		{
			OFFSET 6.797100 -2.508499 -1.318700
			CHANNELS 3 Xrotation Yrotation Zrotation
			JOINT LeftLeg
			{
				OFFSET 0.069008 -29.241863 0.690200
				CHANNELS 3 Xrotation Yrotation Zrotation
				JOINT LeftFoot
				{
					OFFSET -0.069008 -29.568123 -0.266800
					CHANNELS 3 Xrotation Yrotation Zrotation
					JOINT LeftToeBase
					{
						OFFSET 3.145500 -8.631000 16.059900
						CHANNELS 3 Xrotation Yrotation Zrotation
						End Site
						{
							OFFSET 0.000000 18.501587 0.000000
						}
					}
				}
			}
			JOINT Left_ShortSleeve
			{
				OFFSET 0.265923 -10.480953 1.153800
				CHANNELS 3 Xrotation Yrotation Zrotation
				End Site
				{
					OFFSET 1.725763 19.823879 0.000000
				}
			}
		}
		JOINT RightUpLeg
		{
			OFFSET -6.797100 -2.508499 -1.318700
			CHANNELS 3 Xrotation Yrotation Zrotation
			JOINT RightLeg
			{
				OFFSET -0.082453 -29.241932 0.688000
				CHANNELS 3 Xrotation Yrotation Zrotation
				JOINT RightFoot
				{
					OFFSET 0.082453 -29.568058 -0.264600
					CHANNELS 3 Xrotation Yrotation Zrotation
					JOINT RightToeBase
					{
						OFFSET -3.115300 -8.682800 16.113400
						CHANNELS 3 Xrotation Yrotation Zrotation
						End Site
						{
							OFFSET 0.000000 18.567114 0.000000
						}
					}
				}
			}
			JOINT Right_ShortSleeve
			{
				OFFSET -0.265923 -10.480953 1.153800
				CHANNELS 3 Xrotation Yrotation Zrotation
				End Site
				{
					OFFSET -1.725766 19.823910 0.000000
				}
			}
		}
	}
	JOINT Spine
	{
		OFFSET 0.000000 13.368103 0.470500
		CHANNELS 3 Xrotation Yrotation Zrotation
		JOINT Spine1
		{
			OFFSET 0.147000 13.837402 0.538800
			CHANNELS 3 Xrotation Yrotation Zrotation
			JOINT Spine2
			{
				OFFSET 0.168000 16.242897 -1.435500
				CHANNELS 3 Xrotation Yrotation Zrotation
				JOINT Neck
				{
					OFFSET 0.217200 18.631500 -1.679100
					CHANNELS 3 Xrotation Yrotation Zrotation
					JOINT Head
					{
						OFFSET 0.000000 6.599396 1.385900
						CHANNELS 3 Xrotation Yrotation Zrotation
						JOINT Hat
						{
							OFFSET -0.532200 27.220596 -10.096100
							CHANNELS 3 Xrotation Yrotation Zrotation
							End Site
							{
								OFFSET 0.000000 22.029861 0.000000
							}
						}
						JOINT HairD
						{
							OFFSET -10.777400 17.437393 -1.325900
							CHANNELS 3 Xrotation Yrotation Zrotation
							JOINT HairD1
							{
								OFFSET -3.290299 -11.051193 1.062200
								CHANNELS 3 Xrotation Yrotation Zrotation
								End Site
								{
									OFFSET 0.000000 11.579437 0.000000
								}
							}
						}
						JOINT HairB
						{
							OFFSET -10.777400 17.437393 1.467900
							CHANNELS 3 Xrotation Yrotation Zrotation
							JOINT HairB1
							{
								OFFSET -1.561200 -12.956299 3.590200
								CHANNELS 3 Xrotation Yrotation Zrotation
								End Site
								{
									OFFSET 0.000000 13.534866 0.000000
								}
							}
						}
						JOINT HairA
						{
							OFFSET 9.713100 17.437393 1.467900
							CHANNELS 3 Xrotation Yrotation Zrotation
							JOINT HairA1
							{
								OFFSET 1.561200 -12.956299 3.590200
								CHANNELS 3 Xrotation Yrotation Zrotation
								End Site
								{
									OFFSET 0.000000 13.534866 0.000000
								}
							}
						}
						JOINT HairC
						{
							OFFSET 9.713100 17.437393 -1.325900
							CHANNELS 3 Xrotation Yrotation Zrotation
							JOINT HairC1
							{
								OFFSET 3.290300 -11.051193 1.062200
								CHANNELS 3 Xrotation Yrotation Zrotation
								End Site
								{
									OFFSET 0.000000 11.579437 0.000000
								}
							}
						}
					}
				}
				JOINT LeftShoulder
				{
					OFFSET 5.101800 15.108002 -2.763700
					CHANNELS 3 Xrotation Yrotation Zrotation
					JOINT LeftArm
					{
						OFFSET 9.825497 2.506317 -1.597400
						CHANNELS 3 Xrotation Yrotation Zrotation
						JOINT LeftForeArm
						{
							OFFSET 21.966244 0.000000 0.000000
							CHANNELS 3 Xrotation Yrotation Zrotation
							JOINT LeftHand
							{
								OFFSET 33.879036 0.000000 0.000000
								CHANNELS 3 Xrotation Yrotation Zrotation
								JOINT LeftHandThumb1
								{
									OFFSET 6.715286 -2.359680 3.363841
									CHANNELS 3 Xrotation Yrotation Zrotation
									JOINT LeftHandThumb2
									{
										OFFSET 2.507072 -1.447464 1.447461
										CHANNELS 3 Xrotation Yrotation Zrotation
										JOINT LeftHandThumb3
										{
											OFFSET 2.898338 -1.673355 1.673357
											CHANNELS 3 Xrotation Yrotation Zrotation
											End Site
											{
												OFFSET -0.295959 3.727692 -0.131651
											}
										}
									}
								}
								JOINT LeftHandIndex1
								{
									OFFSET 14.190811 -0.254547 3.840278
									CHANNELS 3 Xrotation Yrotation Zrotation
									JOINT LeftHandIndex2
									{
										OFFSET 3.551727 0.000000 -0.000000
										CHANNELS 3 Xrotation Yrotation Zrotation
										JOINT LeftHandIndex3
										{
											OFFSET 2.894196 0.000000 0.000000
											CHANNELS 3 Xrotation Yrotation Zrotation
											End Site
											{
												OFFSET -1.000603 2.690872 0.366626
											}
										}
									}
								}
								JOINT LeftHandMiddle1
								{
									OFFSET 13.776489 0.000000 0.000000
									CHANNELS 3 Xrotation Yrotation Zrotation
									JOINT LeftHandMiddle2
									{
										OFFSET 3.438232 0.000000 0.000000
										CHANNELS 3 Xrotation Yrotation Zrotation
										JOINT LeftHandMiddle3
										{
											OFFSET 3.691551 0.000000 0.000000
											CHANNELS 3 Xrotation Yrotation Zrotation
											End Site
											{
												OFFSET -1.082298 3.499527 0.457670
											}
										}
									}
								}
								JOINT LeftHandRing1
								{
									OFFSET 13.966164 -0.268127 -3.067488
									CHANNELS 3 Xrotation Yrotation Zrotation
									JOINT LeftHandRing2
									{
										OFFSET 3.162567 0.000000 0.000000
										CHANNELS 3 Xrotation Yrotation Zrotation
										JOINT LeftHandRing3
										{
											OFFSET 3.324348 0.000000 0.000000
											CHANNELS 3 Xrotation Yrotation Zrotation
											End Site
											{
												OFFSET -0.861900 3.184998 0.405154
											}
										}
									}
								}
								JOINT LeftHandPinky1
								{
									OFFSET 13.131393 -0.168503 -5.746925
									CHANNELS 3 Xrotation Yrotation Zrotation
									JOINT LeftHandPinky2
									{
										OFFSET 2.849182 0.000000 0.000000
										CHANNELS 3 Xrotation Yrotation Zrotation
										JOINT LeftHandPinky3
										{
											OFFSET 2.805038 0.000000 0.000000
											CHANNELS 3 Xrotation Yrotation Zrotation
											End Site
											{
												OFFSET -0.882500 2.642609 0.325652
											}
										}
									}
								}
							}
							JOINT Left_Sleeve
							{
								OFFSET 6.592125 -0.646545 0.805568
								CHANNELS 3 Xrotation Yrotation Zrotation
								End Site
								{
									OFFSET -0.000179 20.275787 -0.000000
								}
							}
						}
					}
				}
				JOINT RightShoulder
				{
					OFFSET -5.731700 15.108002 -2.763700
					CHANNELS 3 Xrotation Yrotation Zrotation
					JOINT RightArm
					{
						OFFSET -9.825497 2.506317 -1.597400
						CHANNELS 3 Xrotation Yrotation Zrotation
						JOINT RightForeArm
						{
							OFFSET -21.966242 0.000000 0.000000
							CHANNELS 3 Xrotation Yrotation Zrotation
							JOINT RightHand
							{
								OFFSET -33.879032 0.000000 0.000000
								CHANNELS 3 Xrotation Yrotation Zrotation
								JOINT RightHandThumb1
								{
									OFFSET -6.715286 -2.359680 3.363841
									CHANNELS 3 Xrotation Yrotation Zrotation
									JOINT RightHandThumb2
									{
										OFFSET -2.507072 -1.447464 1.447461
										CHANNELS 3 Xrotation Yrotation Zrotation
										JOINT RightHandThumb3
										{
											OFFSET -2.898338 -1.673355 1.673357
											CHANNELS 3 Xrotation Yrotation Zrotation
											End Site
											{
												OFFSET 0.295959 3.727692 -0.131651
											}
										}
									}
								}
								JOINT RightHandIndex1
								{
									OFFSET -14.190811 -0.254547 3.840278
									CHANNELS 3 Xrotation Yrotation Zrotation
									JOINT RightHandIndex2
									{
										OFFSET -3.551727 0.000000 -0.000000
										CHANNELS 3 Xrotation Yrotation Zrotation
										JOINT RightHandIndex3
										{
											OFFSET -2.894196 0.000000 0.000000
											CHANNELS 3 Xrotation Yrotation Zrotation
											End Site
											{
												OFFSET 1.000603 2.690872 0.366626
											}
										}
									}
								}
								JOINT RightHandMiddle1
								{
									OFFSET -13.776489 0.000000 0.000000
									CHANNELS 3 Xrotation Yrotation Zrotation
									JOINT RightHandMiddle2
									{
										OFFSET -3.438232 0.000000 0.000000
										CHANNELS 3 Xrotation Yrotation Zrotation
										JOINT RightHandMiddle3
										{
											OFFSET -3.691551 0.000000 0.000000
											CHANNELS 3 Xrotation Yrotation Zrotation
											End Site
											{
												OFFSET 1.082298 3.499527 0.457670
											}
										}
									}
								}
								JOINT RightHandRing1
								{
									OFFSET -13.966164 -0.268127 -3.067488
									CHANNELS 3 Xrotation Yrotation Zrotation
									JOINT RightHandRing2
									{
										OFFSET -3.162567 0.000000 0.000000
										CHANNELS 3 Xrotation Yrotation Zrotation
										JOINT RightHandRing3
										{
											OFFSET -3.324348 0.000000 0.000000
											CHANNELS 3 Xrotation Yrotation Zrotation
											End Site
											{
												OFFSET 0.861900 3.184998 0.405154
											}
										}
									}
								}
								JOINT RightHandPinky1
								{
									OFFSET -13.131393 -0.168503 -5.746925
									CHANNELS 3 Xrotation Yrotation Zrotation
									JOINT RightHandPinky2
									{
										OFFSET -2.849182 0.000000 0.000000
										CHANNELS 3 Xrotation Yrotation Zrotation
										JOINT RightHandPinky3
										{
											OFFSET -2.805038 0.000000 0.000000
											CHANNELS 3 Xrotation Yrotation Zrotation
											End Site
											{
												OFFSET 0.882500 2.642609 0.325652
											}
										}
									}
								}
							}
							JOINT Right_Sleeve
							{
								OFFSET -6.592125 -0.646545 0.805568
								CHANNELS 3 Xrotation Yrotation Zrotation
								End Site
								{
									OFFSET 0.000179 20.275787 -0.000000
								}
							}
						}
					}
				}
				JOINT Bind_Right_JacketString
				{
					OFFSET -3.534800 11.969597 7.200700
					CHANNELS 3 Xrotation Yrotation Zrotation
					JOINT Bind_Right_JacketString1
					{
						OFFSET -0.319900 -6.102600 2.794100
						CHANNELS 3 Xrotation Yrotation Zrotation
						End Site
						{
							OFFSET 0.000000 6.719452 0.000000
						}
					}
				}
				JOINT Bind_Left_JacketString
				{
					OFFSET 2.904800 11.969597 7.200700
					CHANNELS 3 Xrotation Yrotation Zrotation
					JOINT Bind_Left_JacketString1
					{
						OFFSET 0.364800 -5.904503 3.186800
						CHANNELS 3 Xrotation Yrotation Zrotation
						End Site
						{
							OFFSET 0.000000 6.719513 0.000000
						}
					}
				}
				JOINT HairE
				{
					OFFSET 5.915200 17.612701 -11.592200
					CHANNELS 3 Xrotation Yrotation Zrotation
					JOINT HairE1
					{
						OFFSET 0.289200 -7.171898 -1.284500
						CHANNELS 3 Xrotation Yrotation Zrotation
						End Site
						{
							OFFSET 0.000000 7.291756 0.000000
						}
					}
				}
				JOINT HairF
				{
					OFFSET -0.864800 17.612701 -11.592200
					CHANNELS 3 Xrotation Yrotation Zrotation
					JOINT HairF1
					{
						OFFSET 0.000000 -14.087097 -2.127501
						CHANNELS 3 Xrotation Yrotation Zrotation
						End Site
						{
							OFFSET 0.000000 14.246841 0.000000
						}
					}
				}
				JOINT HairG
				{
					OFFSET -8.087700 17.612701 -11.592200
					CHANNELS 3 Xrotation Yrotation Zrotation
					JOINT HairG1
					{
						OFFSET -0.293600 -6.081398 -0.910100
						CHANNELS 3 Xrotation Yrotation Zrotation
						End Site
						{
							OFFSET 0.000000 6.156120 0.000000
						}
					}
				}
			}
		}
	}
	JOINT Pouch
	{
		OFFSET 0.000000 4.394501 10.847300
		CHANNELS 3 Xrotation Yrotation Zrotation
		End Site
		{
			OFFSET 0.000000 21.880577 0.000000
		}
	}
	JOINT Bag
	{
		OFFSET -13.229000 4.813004 -0.593300
		CHANNELS 3 Xrotation Yrotation Zrotation
		End Site
		{
			OFFSET 0.000000 21.880577 0.000000
		}
	}
	JOINT OccupyGuyFacialAnim_Joint
	{
		OFFSET 1.000000 -70.206398 -1.655000
		CHANNELS 3 Xrotation Yrotation Zrotation
		End Site
		{
			OFFSET 0.000000 21.880577 0.000000
		}
	}
}
MOTION
Frames: 4
Frame Time: 0.033333
-0.757872 64.319778 1.133207 9.021224 -35.283268 2.274423 0.000001 -0.000002 0.000000 -44.283463 5.429518 21.708383 41.191133 -5.090114 -2.215898 -4.881293 0.744221 -8.643130 -0.000000 -0.000000 0.000000 -0.000001 -0.000002 -0.000000 -17.475316 -11.893976 -18.419801 45.246650 -8.636741 -2.929795 -19.875769 -5.136483 23.273557 0.000000 0.000001 -0.000000 -0.000000 -0.000002 0.000001 4.114605 4.146736 4.475193 2.239076 1.593937 0.860906 2.204523 1.670148 0.808792 -1.927784 3.691710 -0.686380 5.133062 18.698635 -7.376994 0.000001 -0.000000 -0.000000 0.000001 -0.000000 -0.000000 0.000001 -0.000000 -0.000000 0.000001 -0.000000 -0.000000 0.000001 -0.000000 -0.000000 0.000001 -0.000000 -0.000000 0.000001 -0.000000 -0.000000 0.000001 -0.000000 -0.000000 0.000001 -0.000000 -0.000000 8.609658 -11.715077 -2.901997 -49.514196 -2.050644 -44.056503 -0.000126 -106.059171 -0.000122 14.736529 1.352707 4.709731 -10.301400 -18.155613 -0.588727 10.162443 44.411761 3.472652 -0.000002 0.000001 0.000001 -1.631015 2.447617 -39.914809 4.426005 5.675437 -75.880055 0.000004 0.000003 -0.000003 2.426975 7.051509 -53.333505 4.425065 5.675202 -75.870404 0.000000 0.000001 -0.000003 6.553523 9.299603 -62.042023 5.313049 5.826375 -84.714864 0.000001 -0.000001 -0.000001 14.714236 10.927362 -74.331965 5.239118 5.819103 -83.986328 -0.000001 -0.000003 -0.000003 0.000002 -0.000002 0.000001 4.725699 14.099137 -1.082791 -49.053049 29.807287 70.914917 0.000036 111.673279 -0.000037 2.355099 10.638898 0.225057 -11.166435 20.258063 1.190141 10.077953 -46.296101 -3.954707 0.000001 -0.000003 0.000001 -1.918763 -1.494641 39.067159 3.514272 -4.515035 75.779228 -0.000001 -0.000001 0.000002 1.874578 -5.975913 52.515842 3.512818 -4.514684 75.760704 0.000000 0.000000 -0.000002 5.822297 -8.193678 61.217579 4.218315 -4.636503 84.586907 -0.000000 0.000000 -0.000003 13.732858 -9.851937 73.471416 4.159630 -4.630582 83.860366 -0.000001 0.000002 0.000003 0.000000 -0.000001 -0.000000 -0.000002 -0.000002 0.000001 -0.000001 -0.000002 0.000001 -0.000002 -0.000002 0.000001 -0.000002 -0.000002 0.000001 -0.000002 -0.000002 0.000001 -0.000001 -0.000002 0.000001 -0.000002 -0.000002 0.000001 -0.000002 -0.000002 0.000001 -0.000002 -0.000002 0.000001 -0.000001 -0.000002 0.000001 0.000001 -0.000002 0.000000 0.000001 -0.000002 0.000000 0.000001 -0.000002 0.000000 
-0.602499 64.525650 0.790291 9.190631 -36.140085 2.595779 -0.000001 0.000002 -0.000000 -43.643625 5.638931 21.676116 39.750099 -4.681041 -2.192590 -4.034577 1.290549 -8.929931 -0.000000 -0.000002 -0.000000 -0.000003 -0.000002 -0.000001 -18.517650 -11.696625 -18.714761 45.423893 -7.596900 -3.057644 -19.111277 -5.009656 22.977713 0.000000 -0.000001 0.000000 0.000000 0.000003 -0.000000 4.077581 3.988095 4.299012 2.285359 1.483424 0.806542 2.252030 1.561917 0.754986 -1.796674 3.852093 -0.710612 4.600978 18.840102 -7.729876 0.000002 0.000000 0.000000 0.000002 0.000000 0.000000 0.000002 0.000000 0.000000 0.000002 0.000000 -0.000000 0.000002 0.000000 -0.000000 0.000002 0.000000 -0.000000 0.000002 0.000000 -0.000000 0.000002 0.000000 0.000000 0.000002 0.000000 0.000000 8.607578 -11.638447 -2.983312 -49.728394 -2.774226 -43.786738 0.000067 -106.241031 0.000075 13.795541 1.515955 4.477100 -9.813884 -18.037976 -0.608469 10.119038 44.096784 3.462403 0.000001 0.000004 -0.000001 -1.690939 2.282949 -39.226784 4.344183 5.654321 -75.051102 0.000002 0.000001 0.000000 2.367160 7.006717 -52.600414 4.331887 5.651052 -74.926219 -0.000003 0.000001 -0.000001 6.534391 9.346022 -61.294719 5.216148 5.816628 -83.759593 -0.000001 0.000000 -0.000003 14.717652 11.172671 -73.534056 5.143124 5.808220 -83.038544 -0.000003 -0.000001 -0.000001 -0.000002 -0.000001 0.000002 4.729233 14.157374 -1.169002 -48.187968 30.677918 70.925982 0.000218 110.838869 -0.000216 2.861488 12.882459 -0.055836 -8.288981 19.524565 0.396578 9.940097 -45.179342 -3.923869 0.000000 -0.000001 -0.000000 -2.237194 -0.290490 33.752172 3.097457 -4.388748 70.413335 -0.000002 -0.000001 0.000002 1.525943 -5.681848 46.896437 3.055753 -4.373751 69.867330 -0.000002 0.000001 -0.000002 5.749020 -8.624237 55.571857 3.736826 -4.565529 78.590055 -0.000001 -0.000004 -0.000001 14.375497 -11.211948 67.843149 3.682853 -4.554336 77.911155 0.000003 -0.000002 0.000002 -0.000000 0.000001 0.000000 0.000001 -0.000000 0.000000 0.000000 0.000001 -0.000000 0.000001 -0.000000 0.000000 0.000001 -0.000000 0.000000 0.000001 -0.000000 0.000000 0.000000 0.000001 -0.000000 0.000001 -0.000000 0.000000 0.000001 -0.000000 0.000000 0.000001 -0.000000 0.000000 0.000000 0.000001 -0.000000 -0.000001 0.000002 -0.000000 -0.000001 0.000002 -0.000000 -0.000001 0.000002 -0.000000 
-0.321411 64.765724 0.439839 9.549998 -36.976517 3.323313 -0.000000 -0.000003 0.000001 -42.925058 5.938397 21.093468 37.891052 -4.739731 -2.120962 -2.760543 3.219111 -9.102258 0.000000 0.000000 -0.000000 0.000003 0.000002 0.000001 -19.891440 -11.545845 -19.478289 45.515629 -6.351214 -3.112756 -18.203106 -4.860482 22.601750 0.000000 0.000001 0.000000 -0.000001 -0.000001 -0.000000 3.993091 3.825827 4.034518 2.404443 1.517116 0.810996 2.371424 1.594572 0.762964 -1.503732 3.940818 -0.905315 3.969489 19.084305 -8.141353 0.000002 -0.000000 -0.000000 0.000002 -0.000000 -0.000000 0.000002 -0.000000 -0.000000 0.000002 -0.000000 -0.000000 0.000000 -0.000001 0.000000 0.000002 -0.000000 -0.000000 0.000000 -0.000001 0.000000 0.000002 -0.000000 -0.000000 0.000002 -0.000000 -0.000000 8.571482 -12.214683 -3.355306 -49.258655 -5.236517 -43.270782 -0.000170 -106.858241 -0.000184 13.554601 1.613163 5.794483 -10.147735 -18.104480 -0.681385 10.145159 44.286520 3.468627 -0.000002 -0.000001 0.000003 -1.648297 2.390599 -39.625517 4.392639 5.666982 -75.542404 0.000001 0.000002 -0.000005 2.402206 7.033110 -53.030910 4.387028 5.665556 -75.485584 0.000004 -0.000000 -0.000001 6.534614 9.312975 -61.730341 5.273590 5.822593 -84.326035 0.000001 0.000002 -0.000001 14.677810 11.028142 -73.977116 5.199973 5.814864 -83.599958 0.000003 -0.000001 -0.000001 -0.000001 -0.000000 0.000001 4.813866 13.910668 -1.693551 -46.386625 31.984307 70.160222 0.000025 109.687340 -0.000030 4.867121 15.954967 -2.025415 -4.005243 18.341573 -0.784930 9.731383 -43.460900 -3.870341 0.000002 0.000001 0.000002 -2.366787 1.601909 25.971791 2.506333 -4.131711 62.468726 0.000001 0.000001 -0.000001 1.070440 -5.191680 38.650125 2.410803 -4.080630 61.134599 0.000001 -0.000001 0.000001 5.497686 -9.327908 47.259827 3.043271 -4.369170 69.703481 0.000002 0.000000 0.000001 14.942108 -13.579540 59.567535 2.997099 -4.351864 69.096393 0.000003 0.000003 -0.000004 -0.000000 -0.000004 -0.000001 -0.000000 0.000001 -0.000000 0.000001 0.000001 -0.000000 -0.000000 0.000001 -0.000000 -0.000000 0.000001 -0.000000 -0.000000 0.000001 -0.000000 0.000001 0.000001 -0.000000 -0.000000 0.000001 -0.000000 -0.000000 0.000001 -0.000000 -0.000000 0.000001 -0.000000 0.000001 0.000001 -0.000000 -0.000000 -0.000003 0.000001 -0.000000 -0.000003 0.000001 -0.000000 -0.000003 0.000001 
0.153684 65.050301 0.003643 10.462760 -37.345528 4.763754 0.000000 -0.000000 0.000000 -42.821984 6.209810 19.905036 35.870292 -4.465270 -2.110697 -1.045070 3.650851 -8.668767 0.000000 0.000000 -0.000000 0.000001 0.000000 0.000001 -22.033719 -11.258308 -20.788516 45.792447 -5.324871 -3.058615 -16.921394 -4.697004 22.353351 -0.000001 0.000001 0.000000 0.000002 -0.000003 -0.000001 3.875589 3.531736 3.716025 2.535323 1.387130 0.794473 2.504384 1.462408 0.749851 -1.204313 4.024129 -1.212311 3.168529 19.499237 -8.552919 0.000002 -0.000000 0.000000 0.000002 -0.000000 0.000000 0.000002 -0.000000 0.000000 0.000002 -0.000000 0.000000 0.000000 0.000000 -0.000000 0.000002 -0.000000 0.000000 0.000000 0.000000 -0.000000 0.000002 -0.000000 0.000000 0.000002 -0.000000 0.000000 8.492930 -12.915768 -3.940155 -49.112608 -8.432133 -42.114117 -0.000046 -108.260056 -0.000050 15.206976 1.571071 9.631814 -11.853119 -18.507429 -0.667051 10.295709 45.371813 3.502141 -0.000001 0.000002 -0.000001 -1.418983 2.953533 -41.987669 4.675791 5.732191 -78.392950 0.000001 0.000005 -0.000003 2.611215 7.182197 -55.549420 4.709727 5.739037 -78.732451 -0.000001 0.000001 -0.000001 6.585810 9.154903 -64.294053 5.607588 5.846018 -87.610918 -0.000002 0.000000 0.000002 14.609648 10.199628 -76.700531 5.530991 5.842341 -86.858717 -0.000000 0.000001 0.000001 0.000001 -0.000002 0.000001 4.924464 13.544117 -2.395217 -43.064100 33.475655 68.447143 -0.000049 108.492241 0.000047 7.245632 19.366481 -5.593126 1.237263 16.814187 -1.906623 9.453296 -41.125973 -3.786534 0.000001 0.000000 0.000002 -1.916033 3.881418 16.751572 1.843838 -3.712868 52.806563 -0.000001 0.000001 0.000000 0.628771 -4.533429 28.881810 1.695601 -3.595810 50.481006 0.000001 0.000000 -0.000001 4.909782 -10.184588 37.340446 2.251505 -3.988909 58.870958 0.000001 0.000000 -0.000002 14.597871 -16.839073 49.522604 2.215408 -3.966934 58.350484 0.000001 -0.000002 -0.000002 -0.000000 0.000005 0.000000 -0.000000 0.000000 -0.000000 -0.000001 0.000002 -0.000001 -0.000000 0.000000 -0.000000 -0.000000 0.000000 -0.000000 -0.000000 0.000000 -0.000000 -0.000001 0.000002 -0.000001 -0.000000 0.000000 -0.000000 -0.000000 0.000000 -0.000000 -0.000000 0.000000 -0.000000 -0.000001 0.000002 -0.000001 0.000000 -0.000000 0.000000 0.000000 -0.000000 0.000000 0.000000 -0.000000 0.000000 
